<svg xmlns="http://www.w3.org/2000/svg" viewBox="0 0 192 192">
  <defs>
    <linearGradient id="g" x1="20" y1="20" x2="172" y2="172" gradientUnits="userSpaceOnUse">
      <stop offset="0" stop-color="#48D886"/>
      <stop offset="0.55" stop-color="#1D9CA1"/>
      <stop offset="1" stop-color="#FFEC3D"/>
    </linearGradient>
  </defs>
  <rect width="192" height="192" rx="44" fill="url(#g)"/>
  <g fill="white" transform="translate(32 32) scale(2.03)">
    <path d="M44 6c1.5 0 3 .4 4.3 1.3 1.3.8 2.3 2 3 3.4.7 1.3 1 2.8.9 4.3-.2 1.5-.7 3-1.6 4.2l-17 23.6-5-3.4L45.2 15c.2-.3.3-.7.2-1-.1-.4-.3-.7-.6-.9-.3-.2-.7-.3-1-.2-.4 0-.7.3-.9.6L27.7 34.7l-5-3.4 16.9-23.6c.8-1.1 1.9-1.9 3.2-2.3 1-.3 2.1-.5 3.2-.5Z"/>
    <path d="M26.5 35.5l6.3 4.3-5.2 7.3-6.3-4.3 5.2-7.3Z"/>
    <path d="M20 41c-3 1-5.7 3-7.8 5.6-2 2.7-3.2 5.8-3.4 9.2 3.4-.5 6.6-1.9 9.2-4 2.7-2 4.7-4.7 5.9-7.8L20 41Z"/>
    <path d="M34 52c.5 2 1.7 3.9 3.3 5.3 1.7 1.3 3.7 2.1 5.8 2.3l-3.2-10.4L34 52Z"/>
  </g>
</svg>
